<svg width="512" height="512" viewBox="0 0 512 512" xmlns="http://www.w3.org/2000/svg">
  <defs>
    <linearGradient id="grad1" x1="0%" y1="0%" x2="100%" y2="100%">
      <stop offset="0%" style="stop-color:#667eea;stop-opacity:1" />
      <stop offset="100%" style="stop-color:#764ba2;stop-opacity:1" />
    </linearGradient>
  </defs>
  
  <!-- Background circle -->
  <circle cx="256" cy="256" r="240" fill="url(#grad1)" stroke="#ffffff" stroke-width="8"/>
  
  <!-- Book icon -->
  <rect x="140" y="120" width="200" height="140" rx="8" fill="#ffffff" opacity="0.9"/>
  <rect x="150" y="130" width="180" height="120" rx="4" fill="#667eea" opacity="0.1"/>
  
  <!-- Lines representing text -->
  <line x1="160" y1="150" x2="320" y2="150" stroke="#667eea" stroke-width="3" stroke-linecap="round"/>
  <line x1="160" y1="170" x2="300" y2="170" stroke="#667eea" stroke-width="3" stroke-linecap="round"/>
  <line x1="160" y1="190" x2="280" y2="190" stroke="#667eea" stroke-width="3" stroke-linecap="round"/>
  <line x1="160" y1="210" x2="290" y2="210" stroke="#667eea" stroke-width="3" stroke-linecap="round"/>
  <line x1="160" y1="230" x2="260" y2="230" stroke="#667eea" stroke-width="3" stroke-linecap="round"/>
  
  <!-- Calendar icon -->
  <rect x="180" y="300" width="120" height="100" rx="8" fill="#ffffff" opacity="0.9"/>
  <rect x="180" y="300" width="120" height="30" rx="8" fill="#667eea"/>
  <rect x="190" y="310" width="100" height="15" fill="#ffffff"/>
  
  <!-- Calendar grid -->
  <g stroke="#667eea" stroke-width="2" fill="none">
    <line x1="190" y1="340" x2="290" y2="340"/>
    <line x1="190" y1="360" x2="290" y2="360"/>
    <line x1="190" y1="380" x2="290" y2="380"/>
    <line x1="210" y1="320" x2="210" y2="400"/>
    <line x1="230" y1="320" x2="230" y2="400"/>
    <line x1="250" y1="320" x2="250" y2="400"/>
    <line x1="270" y1="320" x2="270" y2="400"/>
  </g>
  
  <!-- People icon -->
  <circle cx="120" cy="200" r="25" fill="#ffffff" opacity="0.9"/>
  <circle cx="120" cy="190" r="12" fill="#667eea"/>
  <path d="M100 220 Q120 210 140 220" stroke="#667eea" stroke-width="4" fill="none" stroke-linecap="round"/>
  
  <circle cx="120" cy="320" r="25" fill="#ffffff" opacity="0.9"/>
  <circle cx="120" cy="310" r="12" fill="#667eea"/>
  <path d="M100 330 Q120 320 140 330" stroke="#667eea" stroke-width="4" fill="none" stroke-linecap="round"/>
  
  <!-- Plus icon for "add" functionality -->
  <circle cx="380" cy="200" r="30" fill="#ffffff" opacity="0.9"/>
  <line x1="365" y1="200" x2="395" y2="200" stroke="#667eea" stroke-width="4" stroke-linecap="round"/>
  <line x1="380" y1="185" x2="380" y2="215" stroke="#667eea" stroke-width="4" stroke-linecap="round"/>
</svg>
